<svg width="71" height="70" viewBox="0 0 71 70" fill="none" xmlns="http://www.w3.org/2000/svg">
<rect x="0.5" width="70" height="70" rx="35" fill="#C17B53"/>
<path d="M14.021 23.2031H56.979C57.073 23.2031 57.12 23.1561 57.12 23.1091V22.3571C57.12 22.3101 57.073 22.2631 56.979 22.2631C55.475 22.2631 53.971 20.2891 53.971 18.5031C53.971 18.4561 53.924 18.4091 53.83 18.4091H17.17C17.076 18.4091 17.029 18.4561 17.029 18.5501C17.029 20.3361 15.525 22.2631 14.021 22.2631C13.927 22.2631 13.88 22.3101 13.88 22.4041V23.0621C13.88 23.1561 13.927 23.2031 14.021 23.2031ZM59.141 26.4461C57.449 26.4461 56.086 25.7881 56.086 24.2841C56.086 24.1901 56.039 24.1431 55.945 24.1431H14.867C14.867 25.7411 13.551 26.4461 11.859 26.4461C11.765 26.4461 11.718 26.5401 11.718 26.6341V27.2451C11.718 27.2921 11.765 27.3861 11.859 27.3861H59.141C59.235 27.3861 59.282 27.2921 59.282 27.2451V26.6341C59.282 26.5401 59.235 26.4461 59.141 26.4461ZM55.522 28.2791H15.431C15.384 28.2791 15.337 28.3731 15.337 28.4201V49.5231C15.337 49.5701 15.384 49.6641 15.431 49.6641H23.609V48.7241H25.254V47.0791H21.87V44.4941C21.87 44.0241 22.105 43.6481 22.481 43.4131V40.5461H21.87V37.9611C21.87 37.2561 22.481 36.6451 23.233 36.6451C24.032 36.6451 24.643 37.2561 24.643 37.9611V39.9821C25.348 39.8411 25.818 39.4651 25.818 38.7601V38.4311H26.382V37.9611C26.382 37.2091 27.04 36.6451 27.792 36.6451C28.544 36.6451 29.155 37.2091 29.155 37.9611V38.4311H31.27V36.9741H39.636V38.4311H41.845V37.9611C41.845 37.2091 42.456 36.6451 43.208 36.6451C43.96 36.6451 44.618 37.2091 44.618 37.9611V38.4311H45.182V38.7131C45.182 39.4181 45.652 39.8881 46.357 40.0291V37.9611C46.357 37.2561 46.968 36.6451 47.767 36.6451C48.519 36.6451 49.13 37.2561 49.13 37.9611V40.5461H48.237V43.2721C48.754 43.4601 49.13 43.9301 49.13 44.4941V47.0791H45.746V48.7241H47.297V49.6641H55.522C55.569 49.6641 55.616 49.6171 55.663 49.6171V28.4201C55.663 28.3731 55.616 28.2791 55.522 28.2791ZM20.084 34.1071H17.311V31.5221C17.311 30.8171 17.969 30.2061 18.721 30.2061C19.473 30.2061 20.084 30.8171 20.084 31.5221V34.1071ZM24.643 34.1071H21.87V31.5221C21.87 30.8171 22.481 30.2061 23.233 30.2061C24.032 30.2061 24.643 30.8171 24.643 31.5221V34.1071ZM29.155 34.1071H26.382V31.5221C26.382 30.8171 27.04 30.2061 27.792 30.2061C28.544 30.2061 29.155 30.8171 29.155 31.5221V34.1071ZM44.618 34.1071H41.845V31.5221C41.845 30.8171 42.456 30.2061 43.208 30.2061C43.96 30.2061 44.618 30.8171 44.618 31.5221V34.1071ZM49.13 34.1071H46.357V31.5221C46.357 30.8171 46.968 30.2061 47.767 30.2061C48.519 30.2061 49.13 30.8171 49.13 31.5221V34.1071ZM53.642 34.1071H50.869V31.5221C50.869 30.8171 51.527 30.2061 52.279 30.2061C53.031 30.2061 53.642 30.8171 53.642 31.5221V34.1071ZM39.636 34.1071H31.27V30.4881H39.636V34.1071ZM20.084 40.5461H17.311V37.9611C17.311 37.2561 17.969 36.6451 18.721 36.6451C19.473 36.6451 20.084 37.2561 20.084 37.9611V40.5461ZM53.642 40.5461H50.869V37.9611C50.869 37.2561 51.527 36.6451 52.279 36.6451C53.031 36.6451 53.642 37.2561 53.642 37.9611V40.5461ZM46.357 50.6041V49.6641H44.806V44.6821H47.532V43.7421C46.404 43.7421 45.37 43.2251 44.947 42.0971H47.532V41.1571C46.075 41.1571 44.383 40.5931 44.383 39.0891H26.617C26.617 40.5931 24.878 41.1571 23.421 41.1571V42.0971H26.006C25.63 43.2251 24.596 43.7421 23.421 43.7421V44.6821H26.194V49.6641H24.549V50.6041H23.28V51.5911H47.626V50.6041H46.357ZM20.084 47.0791H17.311V44.4941C17.311 43.7891 17.969 43.1781 18.721 43.1781C19.473 43.1781 20.084 43.7891 20.084 44.4941V47.0791ZM53.642 47.0791H50.869V44.4941C50.869 43.7891 51.527 43.1781 52.279 43.1781C53.031 43.1781 53.642 43.7891 53.642 44.4941V47.0791ZM27.651 47.5961C27.651 46.3741 28.591 45.4341 29.766 45.4341C30.941 45.4341 31.881 46.3741 31.881 47.5961V49.6641H27.651V47.5961ZM35.5 45.4341C36.675 45.4341 37.615 46.3741 37.615 47.5961V49.6641H33.385V47.5961C33.385 46.3741 34.325 45.4341 35.5 45.4341ZM41.234 45.4341C42.409 45.4341 43.349 46.3741 43.349 47.5961V49.6641H39.119V47.5961C39.119 46.3741 40.059 45.4341 41.234 45.4341Z" fill="white"/>
</svg>
